<svg xmlns="http://www.w3.org/2000/svg" xmlns:xlink="http://www.w3.org/1999/xlink" width="500" zoomAndPan="magnify" viewBox="0 0 375 187.499995" height="250" preserveAspectRatio="xMidYMid meet" version="1.0"><defs><clipPath id="id1"><path d="M 0.5 0 L 374.5 0 L 374.5 187 L 0.5 187 Z M 0.5 0 " clip-rule="nonzero"/></clipPath><clipPath id="id2"><path d="M 14 0 L 361.589844 0 L 361.589844 187 L 14 187 Z M 14 0 " clip-rule="nonzero"/></clipPath></defs><g clip-path="url(#id1)"><path fill="#ffffff" d="M 0.5 0 L 374.5 0 L 374.5 194.480469 L 0.5 194.480469 Z M 0.5 0 " fill-opacity="1" fill-rule="nonzero"/><path fill="#ffffff" d="M 0.5 0 L 374.5 0 L 374.5 187 L 0.5 187 Z M 0.5 0 " fill-opacity="1" fill-rule="nonzero"/><path fill="#ffffff" d="M 0.5 0 L 374.5 0 L 374.5 187 L 0.5 187 Z M 0.5 0 " fill-opacity="1" fill-rule="nonzero"/><path fill="#ffffff" d="M 0.5 0 L 374.5 0 L 374.5 187 L 0.5 187 Z M 0.5 0 " fill-opacity="1" fill-rule="nonzero"/></g><g clip-path="url(#id2)"><path fill="#545454" d="M 67.023438 53.40625 C 67.777344 53.40625 68.523438 53.332031 69.265625 53.1875 C 70.003906 53.039062 70.722656 52.820312 71.417969 52.535156 C 72.117188 52.246094 72.777344 51.890625 73.402344 51.472656 C 74.03125 51.054688 74.609375 50.578125 75.144531 50.046875 C 75.675781 49.515625 76.152344 48.933594 76.574219 48.308594 C 76.992188 47.683594 77.34375 47.019531 77.632812 46.324219 C 77.921875 45.628906 78.140625 44.910156 78.289062 44.171875 C 78.433594 43.433594 78.507812 42.6875 78.507812 41.933594 C 78.507812 41.179688 78.433594 40.433594 78.285156 39.695312 C 78.140625 38.957031 77.921875 38.238281 77.632812 37.542969 C 77.34375 36.847656 76.988281 36.183594 76.570312 35.558594 C 76.152344 34.933594 75.675781 34.351562 75.140625 33.820312 C 74.609375 33.289062 74.027344 32.8125 73.402344 32.394531 C 72.773438 31.976562 72.113281 31.621094 71.414062 31.335938 C 70.71875 31.046875 70 30.828125 69.261719 30.683594 C 68.519531 30.535156 67.773438 30.460938 67.019531 30.460938 C 66.265625 30.460938 65.519531 30.535156 64.777344 30.683594 C 64.039062 30.832031 63.320312 31.050781 62.625 31.335938 C 61.929688 31.625 61.265625 31.980469 60.640625 32.398438 C 60.011719 32.816406 59.433594 33.292969 58.898438 33.828125 C 58.367188 34.359375 57.890625 34.941406 57.472656 35.566406 C 57.054688 36.191406 56.699219 36.855469 56.410156 37.550781 C 56.125 38.246094 55.90625 38.964844 55.761719 39.703125 C 55.613281 40.441406 55.539062 41.1875 55.539062 41.941406 C 55.542969 42.695312 55.613281 43.441406 55.761719 44.179688 C 55.910156 44.917969 56.128906 45.632812 56.417969 46.328125 C 56.707031 47.023438 57.058594 47.6875 57.480469 48.3125 C 57.898438 48.9375 58.375 49.515625 58.90625 50.046875 C 59.441406 50.582031 60.019531 51.054688 60.648438 51.472656 C 61.273438 51.890625 61.933594 52.246094 62.632812 52.535156 C 63.328125 52.820312 64.046875 53.039062 64.785156 53.1875 C 65.523438 53.332031 66.269531 53.40625 67.023438 53.40625 Z M 67.023438 31.9375 C 67.683594 31.9375 68.332031 32 68.976562 32.128906 C 69.625 32.257812 70.25 32.449219 70.855469 32.699219 C 71.464844 32.949219 72.042969 33.257812 72.589844 33.625 C 73.136719 33.988281 73.640625 34.402344 74.105469 34.867188 C 74.570312 35.332031 74.984375 35.835938 75.351562 36.382812 C 75.71875 36.929688 76.027344 37.507812 76.277344 38.113281 C 76.527344 38.71875 76.71875 39.347656 76.847656 39.988281 C 76.976562 40.632812 77.039062 41.285156 77.039062 41.941406 C 77.039062 42.597656 76.976562 43.25 76.847656 43.894531 C 76.71875 44.539062 76.527344 45.164062 76.277344 45.769531 C 76.027344 46.378906 75.71875 46.953125 75.351562 47.5 C 74.984375 48.046875 74.570312 48.550781 74.105469 49.015625 C 73.640625 49.480469 73.136719 49.894531 72.589844 50.261719 C 72.042969 50.625 71.464844 50.933594 70.855469 51.183594 C 70.25 51.4375 69.625 51.625 68.976562 51.753906 C 68.332031 51.882812 67.683594 51.945312 67.023438 51.945312 C 66.367188 51.945312 65.714844 51.882812 65.070312 51.753906 C 64.425781 51.625 63.800781 51.4375 63.191406 51.183594 C 62.585938 50.933594 62.007812 50.625 61.460938 50.261719 C 60.914062 49.894531 60.40625 49.480469 59.941406 49.015625 C 59.476562 48.550781 59.0625 48.046875 58.695312 47.5 C 58.332031 46.953125 58.023438 46.378906 57.773438 45.769531 C 57.519531 45.164062 57.328125 44.539062 57.203125 43.894531 C 57.074219 43.25 57.007812 42.597656 57.007812 41.941406 C 57.011719 41.285156 57.074219 40.632812 57.203125 39.988281 C 57.332031 39.347656 57.523438 38.71875 57.773438 38.113281 C 58.023438 37.507812 58.332031 36.929688 58.699219 36.382812 C 59.066406 35.835938 59.480469 35.332031 59.945312 34.867188 C 60.410156 34.402344 60.914062 33.988281 61.460938 33.621094 C 62.007812 33.257812 62.585938 32.949219 63.191406 32.695312 C 63.800781 32.445312 64.425781 32.253906 65.070312 32.125 C 65.714844 31.996094 66.367188 31.929688 67.023438 31.929688 Z M 97.648438 151.066406 C 97.648438 152.066406 97.746094 153.058594 97.941406 154.042969 C 98.136719 155.023438 98.425781 155.976562 98.808594 156.902344 C 99.195312 157.828125 99.664062 158.707031 100.222656 159.542969 C 100.777344 160.375 101.410156 161.144531 102.121094 161.855469 C 102.828125 162.5625 103.601562 163.195312 104.433594 163.75 C 105.269531 164.308594 106.148438 164.777344 107.074219 165.160156 C 108.003906 165.546875 108.957031 165.835938 109.941406 166.03125 C 110.925781 166.226562 111.917969 166.324219 112.921875 166.324219 C 113.925781 166.324219 114.917969 166.226562 115.902344 166.03125 C 116.886719 165.832031 117.839844 165.542969 118.769531 165.160156 C 119.695312 164.777344 120.574219 164.304688 121.410156 163.75 C 122.242188 163.191406 123.015625 162.558594 123.722656 161.851562 C 124.433594 161.144531 125.066406 160.371094 125.625 159.539062 C 126.179688 158.707031 126.652344 157.824219 127.035156 156.898438 C 127.417969 155.972656 127.707031 155.019531 127.902344 154.039062 C 128.097656 153.054688 128.195312 152.0625 128.195312 151.058594 C 128.195312 150.058594 128.097656 149.066406 127.902344 148.082031 C 127.703125 147.101562 127.414062 146.148438 127.03125 145.222656 C 126.644531 144.296875 126.175781 143.417969 125.617188 142.582031 C 125.058594 141.75 124.425781 140.980469 123.71875 140.273438 C 123.007812 139.5625 122.234375 138.929688 121.402344 138.375 C 120.566406 137.820312 119.6875 137.347656 118.761719 136.964844 C 117.832031 136.582031 116.878906 136.292969 115.894531 136.097656 C 114.910156 135.902344 113.917969 135.808594 112.914062 135.808594 C 111.910156 135.808594 110.917969 135.90625 109.9375 136.105469 C 108.953125 136.300781 108 136.589844 107.074219 136.976562 C 106.148438 137.359375 105.269531 137.828125 104.4375 138.386719 C 103.601562 138.941406 102.832031 139.574219 102.125 140.285156 C 101.414062 140.992188 100.78125 141.761719 100.226562 142.59375 C 99.667969 143.425781 99.199219 144.304688 98.8125 145.230469 C 98.429688 146.15625 98.140625 147.109375 97.945312 148.089844 C 97.746094 149.074219 97.648438 150.0625 97.648438 151.066406 Z M 126.71875 151.066406 C 126.71875 151.972656 126.628906 152.867188 126.453125 153.753906 C 126.277344 154.644531 126.015625 155.507812 125.667969 156.34375 C 125.320312 157.179688 124.894531 157.972656 124.390625 158.726562 C 123.890625 159.480469 123.316406 160.175781 122.675781 160.816406 C 122.035156 161.457031 121.335938 162.027344 120.582031 162.53125 C 119.828125 163.035156 119.035156 163.460938 118.195312 163.804688 C 117.359375 164.152344 116.496094 164.414062 115.605469 164.589844 C 114.71875 164.765625 113.820312 164.855469 112.914062 164.855469 C 112.007812 164.855469 111.109375 164.765625 110.222656 164.589844 C 109.332031 164.414062 108.46875 164.152344 107.632812 163.804688 C 106.792969 163.460938 106 163.035156 105.246094 162.53125 C 104.492188 162.027344 103.792969 161.457031 103.152344 160.816406 C 102.511719 160.175781 101.9375 159.480469 101.4375 158.726562 C 100.933594 157.972656 100.507812 157.179688 100.160156 156.34375 C 99.8125 155.507812 99.550781 154.644531 99.375 153.753906 C 99.199219 152.867188 99.109375 151.972656 99.109375 151.066406 C 99.109375 150.160156 99.199219 149.261719 99.375 148.375 C 99.550781 147.488281 99.8125 146.625 100.160156 145.789062 C 100.507812 144.953125 100.933594 144.15625 101.4375 143.402344 C 101.9375 142.652344 102.511719 141.953125 103.152344 141.3125 C 103.792969 140.671875 104.492188 140.101562 105.246094 139.597656 C 106 139.097656 106.792969 138.671875 107.632812 138.324219 C 108.46875 137.976562 109.332031 137.714844 110.222656 137.539062 C 111.109375 137.363281 112.007812 137.273438 112.914062 137.273438 C 113.820312 137.277344 114.71875 137.363281 115.605469 137.542969 C 116.496094 137.71875 117.359375 137.980469 118.195312 138.328125 C 119.03125 138.675781 119.828125 139.101562 120.578125 139.601562 C 121.332031 140.105469 122.03125 140.679688 122.671875 141.316406 C 123.3125 141.957031 123.882812 142.65625 124.386719 143.40625 C 124.890625 144.160156 125.316406 144.953125 125.664062 145.789062 C 126.011719 146.625 126.273438 147.488281 126.453125 148.375 C 126.628906 149.261719 126.71875 150.160156 126.71875 151.066406 Z M 357.683594 19.113281 C 351.867188 11.882812 339.78125 9.433594 338.433594 9.230469 C 314.476562 5.125 285.78125 6.546875 261.671875 13.03125 C 225.949219 22.5625 211.167969 39.761719 205.089844 53.214844 C 204.976562 52.304688 204.792969 51.40625 204.539062 50.523438 C 204.285156 49.640625 203.964844 48.78125 203.578125 47.945312 C 203.191406 47.113281 202.742188 46.3125 202.230469 45.546875 C 201.722656 44.78125 201.15625 44.0625 200.535156 43.386719 C 199.910156 42.707031 199.242188 42.082031 198.519531 41.507812 C 197.800781 40.9375 197.042969 40.421875 196.242188 39.964844 C 195.445312 39.507812 194.617188 39.117188 193.757812 38.789062 C 192.894531 38.460938 192.015625 38.203125 191.117188 38.011719 C 196.800781 36.664062 201.011719 32.28125 201.011719 27.070312 C 201.011719 23.210938 198.726562 19.789062 195.179688 17.734375 C 196.78125 14.898438 198.8125 12.410156 201.269531 10.269531 C 205.46875 6.554688 212.941406 2 224.679688 1.46875 C 224.871094 1.449219 225.035156 1.363281 225.167969 1.21875 C 225.296875 1.074219 225.363281 0.902344 225.363281 0.707031 C 225.355469 0.507812 225.277344 0.339844 225.125 0.203125 C 224.976562 0.0703125 224.800781 0.0117188 224.601562 0.0234375 C 212.425781 0.578125 204.632812 5.34375 200.25 9.246094 C 197.683594 11.480469 195.566406 14.082031 193.902344 17.050781 C 192.886719 16.597656 191.835938 16.253906 190.75 16.023438 C 189.664062 15.792969 188.5625 15.675781 187.453125 15.675781 C 186.339844 15.675781 185.242188 15.792969 184.15625 16.023438 C 183.066406 16.253906 182.015625 16.597656 181.003906 17.050781 C 179.339844 14.074219 177.222656 11.464844 174.648438 9.230469 C 170.257812 5.320312 162.472656 0.554688 150.289062 0 C 150.089844 -0.0078125 149.917969 0.0507812 149.773438 0.183594 C 149.625 0.316406 149.546875 0.484375 149.539062 0.679688 C 149.527344 0.878906 149.589844 1.050781 149.722656 1.195312 C 149.855469 1.34375 150.023438 1.417969 150.21875 1.429688 C 170.21875 2.332031 178.171875 14.871094 179.722656 17.707031 C 176.214844 19.765625 173.910156 23.179688 173.910156 27.035156 C 173.910156 32.242188 178.09375 36.628906 183.804688 37.972656 C 182.933594 38.160156 182.085938 38.40625 181.253906 38.71875 C 180.421875 39.03125 179.617188 39.402344 178.84375 39.832031 C 178.066406 40.265625 177.328125 40.75 176.625 41.292969 C 175.921875 41.835938 175.261719 42.425781 174.648438 43.066406 C 174.03125 43.707031 173.46875 44.390625 172.957031 45.113281 C 172.445312 45.835938 171.988281 46.597656 171.589844 47.390625 C 171.191406 48.179688 170.851562 49 170.574219 49.839844 C 170.296875 50.683594 170.085938 51.542969 169.9375 52.417969 C 163.644531 39.113281 148.75 22.382812 113.707031 12.96875 C 89.597656 6.5 60.898438 5.085938 36.941406 9.167969 C 36.417969 9.28125 23.691406 11.632812 17.671875 19.113281 C 17.003906 19.917969 16.429688 20.789062 15.949219 21.722656 C 15.472656 22.652344 15.097656 23.625 14.828125 24.636719 C 14.558594 25.648438 14.402344 26.679688 14.355469 27.722656 C 14.308594 28.769531 14.375 29.808594 14.550781 30.84375 C 14.90625 32.796875 15.566406 34.644531 16.527344 36.382812 C 17.488281 38.121094 18.703125 39.660156 20.167969 41 C 26.957031 47.347656 35.390625 55.246094 38.898438 65.210938 C 40.417969 69.5625 41.011719 74.257812 41.574219 78.796875 C 41.964844 81.9375 42.335938 85.191406 43.097656 88.332031 C 46.300781 102.539062 56.460938 115.046875 69.6875 122.207031 C 67.421875 127.417969 65.949219 132.84375 65.265625 138.484375 C 63.484375 153.6875 68.492188 168.664062 78.339844 177.527344 C 85.191406 183.710938 94.398438 187 104.609375 187 C 106.253906 187 107.894531 186.917969 109.527344 186.75 C 112.390625 186.449219 115.210938 185.933594 117.992188 185.191406 C 120.773438 184.453125 123.480469 183.503906 126.113281 182.339844 C 128.746094 181.179688 131.273438 179.820312 133.691406 178.265625 C 136.113281 176.710938 138.398438 174.976562 140.546875 173.066406 L 141.476562 172.230469 C 157.523438 157.71875 175.59375 141.363281 181.101562 121.097656 C 184.054688 136.300781 186.488281 148.464844 186.75 149.726562 C 186.789062 149.902344 186.882812 150.046875 187.023438 150.15625 C 187.167969 150.265625 187.328125 150.316406 187.507812 150.3125 C 187.679688 150.308594 187.832031 150.25 187.964844 150.140625 C 188.097656 150.03125 188.183594 149.894531 188.226562 149.726562 C 188.492188 148.40625 191.03125 135.761719 194.070312 120.078125 C 199.246094 140.800781 217.660156 157.453125 233.960938 172.207031 L 234.890625 173.042969 C 237.039062 174.957031 239.324219 176.6875 241.746094 178.242188 C 244.164062 179.800781 246.691406 181.15625 249.324219 182.320312 C 251.957031 183.480469 254.664062 184.429688 257.445312 185.167969 C 260.226562 185.910156 263.046875 186.429688 265.910156 186.726562 C 267.542969 186.894531 269.183594 186.976562 270.828125 186.980469 C 281.039062 186.980469 290.230469 183.6875 297.105469 177.507812 C 306.945312 168.640625 311.953125 153.679688 310.171875 138.460938 C 309.488281 132.820312 308.015625 127.394531 305.75 122.183594 C 318.976562 115.023438 329.136719 102.515625 332.339844 88.308594 C 333.054688 85.167969 333.449219 81.914062 333.863281 78.773438 C 334.425781 74.214844 335.003906 69.539062 336.53125 65.191406 C 340.035156 55.222656 348.480469 47.324219 355.261719 40.976562 C 356.730469 39.636719 357.945312 38.101562 358.90625 36.363281 C 359.867188 34.625 360.523438 32.78125 360.878906 30.828125 C 361.050781 29.792969 361.109375 28.753906 361.054688 27.707031 C 361.003906 26.660156 360.839844 25.632812 360.5625 24.621094 C 360.289062 23.609375 359.90625 22.640625 359.421875 21.710938 C 358.933594 20.78125 358.355469 19.914062 357.683594 19.113281 Z M 262.050781 14.382812 C 281.730469 9.0625 304.492188 7.222656 325.171875 8.984375 C 325.3125 9.117188 325.480469 9.1875 325.671875 9.191406 C 331.503906 9.191406 335.695312 10.644531 340.132812 14.207031 C 341.492188 15.203125 342.738281 16.324219 343.867188 17.578125 C 344.96875 18.996094 345.761719 20.570312 346.257812 22.296875 C 346.75 24.023438 346.90625 25.78125 346.722656 27.566406 C 346.523438 29.875 345.925781 32.074219 344.933594 34.167969 C 343.9375 36.261719 342.609375 38.113281 340.945312 39.730469 L 324.722656 39.730469 C 324.589844 38.746094 324.371094 37.785156 324.0625 36.839844 C 323.757812 35.898438 323.367188 34.988281 322.898438 34.117188 C 322.429688 33.242188 321.882812 32.417969 321.265625 31.640625 C 320.648438 30.867188 319.964844 30.152344 319.21875 29.5 C 318.46875 28.847656 317.671875 28.265625 316.816406 27.757812 C 315.964844 27.25 315.074219 26.820312 314.144531 26.472656 C 313.21875 26.125 312.265625 25.859375 311.289062 25.683594 C 310.308594 25.507812 309.324219 25.417969 308.332031 25.417969 C 307.339844 25.417969 306.355469 25.507812 305.378906 25.683594 C 304.402344 25.859375 303.449219 26.125 302.519531 26.472656 C 301.589844 26.820312 300.699219 27.25 299.847656 27.757812 C 298.996094 28.265625 298.195312 28.847656 297.449219 29.5 C 296.703125 30.152344 296.019531 30.867188 295.398438 31.640625 C 294.78125 32.417969 294.238281 33.242188 293.765625 34.117188 C 293.296875 34.988281 292.910156 35.898438 292.601562 36.839844 C 292.296875 37.785156 292.078125 38.746094 291.945312 39.730469 L 220.332031 35.214844 C 229.199219 27.253906 242.394531 19.667969 262.050781 14.382812 Z M 310.382812 103.929688 L 284.738281 71.460938 L 317.234375 88.566406 C 315.882812 94.101562 313.601562 99.222656 310.382812 103.929688 Z M 317.574219 87.085938 L 282.378906 68.566406 L 225.058594 38.414062 L 321.382812 65.472656 C 319.988281 69.742188 319.417969 74.25 318.871094 78.621094 C 318.527344 81.421875 318.152344 84.292969 317.582031 87.085938 Z M 321.859375 64.085938 L 225.4375 37 L 291.816406 41.183594 C 291.816406 41.433594 291.816406 41.683594 291.816406 41.941406 C 291.839844 43.011719 291.964844 44.070312 292.191406 45.117188 C 292.421875 46.160156 292.75 47.175781 293.175781 48.15625 C 293.601562 49.140625 294.117188 50.070312 294.722656 50.953125 C 295.332031 51.835938 296.015625 52.648438 296.785156 53.398438 C 297.550781 54.148438 298.378906 54.816406 299.273438 55.402344 C 300.171875 55.992188 301.113281 56.484375 302.105469 56.890625 C 303.097656 57.292969 304.121094 57.601562 305.171875 57.804688 C 306.222656 58.011719 307.285156 58.113281 308.355469 58.113281 C 309.425781 58.113281 310.488281 58.011719 311.539062 57.804688 C 312.589844 57.601562 313.613281 57.292969 314.605469 56.890625 C 315.597656 56.484375 316.542969 55.992188 317.4375 55.402344 C 318.332031 54.816406 319.164062 54.148438 319.929688 53.398438 C 320.695312 52.648438 321.378906 51.835938 321.988281 50.953125 C 322.59375 50.070312 323.113281 49.140625 323.539062 48.15625 C 323.964844 47.175781 324.289062 46.160156 324.519531 45.117188 C 324.746094 44.070312 324.875 43.011719 324.898438 41.941406 C 324.898438 41.691406 324.898438 41.441406 324.898438 41.183594 L 339.378906 41.183594 C 332.894531 47.285156 325.367188 54.738281 321.867188 64.085938 Z M 293.261719 41.941406 C 293.261719 40.953125 293.359375 39.972656 293.554688 39.003906 C 293.746094 38.035156 294.035156 37.09375 294.414062 36.179688 C 294.792969 35.265625 295.257812 34.398438 295.808594 33.578125 C 296.359375 32.757812 296.984375 31.996094 297.6875 31.296875 C 298.386719 30.597656 299.148438 29.976562 299.972656 29.425781 C 300.796875 28.878906 301.664062 28.414062 302.578125 28.039062 C 303.496094 27.660156 304.4375 27.375 305.410156 27.183594 C 306.378906 26.992188 307.359375 26.894531 308.351562 26.898438 C 309.339844 26.898438 310.320312 26.996094 311.289062 27.1875 C 312.261719 27.382812 313.203125 27.667969 314.117188 28.046875 C 315.03125 28.425781 315.898438 28.890625 316.722656 29.441406 C 317.542969 29.992188 318.304688 30.617188 319.003906 31.316406 C 319.703125 32.015625 320.328125 32.777344 320.878906 33.597656 C 321.425781 34.421875 321.890625 35.289062 322.269531 36.203125 C 322.648438 37.117188 322.933594 38.058594 323.125 39.027344 C 323.316406 40 323.414062 40.976562 323.414062 41.96875 C 323.414062 42.957031 323.316406 43.933594 323.121094 44.90625 C 322.925781 45.875 322.640625 46.816406 322.261719 47.730469 C 321.882812 48.640625 321.417969 49.511719 320.867188 50.332031 C 320.316406 51.152344 319.691406 51.914062 318.992188 52.613281 C 318.289062 53.3125 317.527344 53.933594 316.707031 54.484375 C 315.882812 55.03125 315.011719 55.496094 314.097656 55.875 C 313.183594 56.25 312.242188 56.535156 311.269531 56.730469 C 310.300781 56.921875 309.320312 57.019531 308.328125 57.015625 C 307.339844 57.015625 306.359375 56.917969 305.386719 56.726562 C 304.417969 56.53125 303.472656 56.246094 302.558594 55.863281 C 301.644531 55.484375 300.777344 55.019531 299.953125 54.472656 C 299.132812 53.921875 298.371094 53.296875 297.671875 52.597656 C 296.972656 51.894531 296.347656 51.132812 295.796875 50.3125 C 295.246094 49.488281 294.785156 48.621094 294.40625 47.707031 C 294.027344 46.792969 293.742188 45.851562 293.550781 44.878906 C 293.355469 43.910156 293.261719 42.929688 293.261719 41.941406 Z M 218.679688 36.726562 L 281.527344 69.78125 L 309.492188 105.183594 C 307.148438 108.4375 304.472656 111.386719 301.464844 114.035156 C 297.089844 106.925781 291.789062 100.589844 285.558594 95.027344 C 279.171875 89.289062 272.21875 84.347656 264.695312 80.203125 C 257.171875 76.058594 249.277344 72.820312 241.007812 70.488281 C 232.90625 68.285156 228.65625 70.792969 226.550781 73.285156 C 223.195312 77.207031 221.6875 86.089844 226.285156 96.320312 C 229.410156 103.269531 234.929688 109.59375 242.683594 115.113281 C 254.28125 123.378906 272.894531 131.03125 290.355469 127.734375 C 293.566406 127.109375 296.691406 126.191406 299.730469 124.972656 C 300.144531 126.816406 300.464844 128.671875 300.6875 130.546875 C 302.417969 145.300781 297.582031 159.785156 288.09375 168.335938 C 286.152344 170.074219 284.039062 171.570312 281.753906 172.824219 L 275.886719 166.140625 C 276.359375 165.699219 276.8125 165.234375 277.242188 164.75 C 277.671875 164.261719 278.078125 163.757812 278.457031 163.230469 C 278.839844 162.707031 279.191406 162.164062 279.523438 161.605469 C 279.851562 161.046875 280.152344 160.472656 280.425781 159.886719 C 280.699219 159.300781 280.941406 158.699219 281.15625 158.089844 C 281.375 157.476562 281.558594 156.855469 281.714844 156.226562 C 281.871094 155.597656 281.996094 154.960938 282.089844 154.320312 C 282.183594 153.679688 282.246094 153.035156 282.28125 152.390625 C 282.3125 151.742188 282.3125 151.09375 282.285156 150.445312 C 282.253906 149.800781 282.191406 149.15625 282.101562 148.511719 C 282.007812 147.871094 281.886719 147.234375 281.734375 146.605469 C 281.578125 145.976562 281.398438 145.355469 281.183594 144.742188 C 280.96875 144.132812 280.726562 143.53125 280.457031 142.941406 C 280.1875 142.351562 279.886719 141.777344 279.5625 141.21875 C 279.234375 140.65625 278.882812 140.113281 278.503906 139.589844 C 278.125 139.0625 277.722656 138.554688 277.292969 138.066406 C 276.867188 137.582031 276.417969 137.113281 275.945312 136.671875 C 275.472656 136.226562 274.980469 135.804688 274.464844 135.410156 C 273.953125 135.011719 273.421875 134.640625 272.875 134.292969 C 272.324219 133.949219 271.761719 133.628906 271.179688 133.339844 C 270.601562 133.046875 270.011719 132.785156 269.40625 132.550781 C 268.800781 132.3125 268.1875 132.109375 267.5625 131.933594 C 266.9375 131.757812 266.304688 131.613281 265.667969 131.5 C 265.027344 131.382812 264.386719 131.300781 263.738281 131.246094 C 263.09375 131.195312 262.445312 131.171875 261.796875 131.179688 C 261.148438 131.191406 260.5 131.230469 259.855469 131.300781 C 259.210938 131.375 258.570312 131.476562 257.933594 131.609375 C 257.300781 131.742188 256.671875 131.90625 256.054688 132.097656 C 255.433594 132.292969 254.824219 132.515625 254.226562 132.765625 C 253.628906 133.019531 253.046875 133.296875 252.476562 133.605469 C 251.90625 133.914062 251.351562 134.25 250.8125 134.609375 C 250.273438 134.972656 249.753906 135.359375 249.25 135.769531 L 201.414062 80.757812 C 202.632812 73.917969 203.695312 67.835938 204.351562 63.226562 L 205.675781 55.550781 C 208.675781 48.347656 213.019531 42.074219 218.703125 36.726562 Z M 290.066406 126.257812 C 286.757812 126.878906 283.421875 127.132812 280.058594 127.019531 C 283.910156 126.015625 287.609375 124.613281 291.152344 122.804688 C 294.699219 120.992188 298.007812 118.824219 301.078125 116.292969 C 302.042969 117.988281 302.964844 119.75 303.800781 121.574219 C 299.445312 123.792969 294.867188 125.351562 290.066406 126.257812 Z M 276.609375 126.257812 C 276.355469 126.316406 276.179688 126.460938 276.078125 126.699219 C 263.664062 125.339844 251.777344 119.773438 243.511719 113.882812 C 235.972656 108.515625 230.621094 102.386719 227.601562 95.636719 C 223.878906 87.375 223.902344 78.539062 227.644531 74.160156 C 229.417969 72.085938 232.007812 71.035156 235.257812 71.035156 C 237.066406 71.054688 238.839844 71.304688 240.582031 71.796875 C 248.738281 74.097656 256.527344 77.292969 263.945312 81.382812 C 271.367188 85.46875 278.226562 90.347656 284.523438 96.007812 C 290.699219 101.542969 295.949219 107.847656 300.277344 114.917969 C 296.875 117.773438 293.167969 120.160156 289.160156 122.082031 C 285.152344 124 280.96875 125.394531 276.609375 126.257812 Z M 243.484375 173.558594 L 203.292969 85.144531 L 248.195312 136.734375 C 247.738281 137.183594 247.304688 137.648438 246.894531 138.136719 C 246.484375 138.625 246.097656 139.132812 245.738281 139.65625 C 245.375 140.183594 245.039062 140.722656 244.726562 141.277344 C 244.414062 141.835938 244.132812 142.40625 243.875 142.988281 C 243.617188 143.570312 243.386719 144.167969 243.1875 144.769531 C 242.988281 145.375 242.816406 145.988281 242.671875 146.609375 C 242.53125 147.230469 242.417969 147.859375 242.332031 148.492188 C 242.25 149.121094 242.195312 149.757812 242.171875 150.394531 C 242.152344 151.03125 242.15625 151.667969 242.195312 152.304688 C 242.230469 152.941406 242.300781 153.574219 242.394531 154.203125 C 242.492188 154.832031 242.621094 155.457031 242.777344 156.074219 C 242.933594 156.691406 243.117188 157.300781 243.332031 157.902344 C 243.546875 158.503906 243.789062 159.09375 244.058594 159.671875 C 244.328125 160.246094 244.625 160.8125 244.945312 161.359375 C 245.269531 161.910156 245.617188 162.445312 245.992188 162.960938 C 246.367188 163.476562 246.765625 163.972656 247.183594 164.453125 C 247.605469 164.933594 248.046875 165.390625 248.511719 165.828125 C 248.976562 166.265625 249.460938 166.679688 249.964844 167.070312 C 250.46875 167.460938 250.988281 167.828125 251.527344 168.171875 C 252.066406 168.511719 252.621094 168.828125 253.1875 169.117188 C 253.757812 169.410156 254.335938 169.671875 254.929688 169.90625 C 255.523438 170.140625 256.125 170.347656 256.738281 170.523438 C 257.351562 170.703125 257.972656 170.851562 258.597656 170.96875 C 259.226562 171.089844 259.855469 171.179688 260.492188 171.238281 C 261.125 171.296875 261.761719 171.328125 262.402344 171.328125 C 263.039062 171.328125 263.675781 171.296875 264.3125 171.234375 C 264.945312 171.175781 265.578125 171.082031 266.203125 170.960938 C 266.832031 170.84375 267.449219 170.691406 268.0625 170.511719 C 268.675781 170.335938 269.277344 170.125 269.871094 169.890625 C 270.460938 169.65625 271.042969 169.390625 271.609375 169.101562 C 272.179688 168.808594 272.730469 168.492188 273.269531 168.148438 C 273.804688 167.804688 274.328125 167.4375 274.828125 167.046875 L 280.484375 173.484375 C 273.992188 176.675781 266.304688 177.976562 258.09375 177.15625 C 253.050781 176.652344 248.183594 175.453125 243.484375 173.558594 Z M 262.441406 169.8125 C 261.824219 169.8125 261.210938 169.78125 260.601562 169.722656 C 259.988281 169.660156 259.382812 169.570312 258.777344 169.453125 C 258.175781 169.332031 257.582031 169.183594 256.992188 169.003906 C 256.402344 168.828125 255.824219 168.621094 255.257812 168.386719 C 254.691406 168.152344 254.136719 167.886719 253.59375 167.597656 C 253.050781 167.308594 252.523438 166.992188 252.011719 166.652344 C 251.503906 166.3125 251.007812 165.945312 250.535156 165.558594 C 250.058594 165.167969 249.605469 164.753906 249.167969 164.320312 C 248.734375 163.886719 248.324219 163.433594 247.933594 162.957031 C 247.542969 162.484375 247.175781 161.992188 246.835938 161.480469 C 246.496094 160.96875 246.179688 160.445312 245.890625 159.902344 C 245.597656 159.359375 245.335938 158.808594 245.101562 158.238281 C 244.867188 157.671875 244.660156 157.09375 244.480469 156.507812 C 244.300781 155.917969 244.152344 155.324219 244.035156 154.722656 C 243.914062 154.121094 243.824219 153.515625 243.761719 152.902344 C 243.703125 152.292969 243.671875 151.679688 243.671875 151.066406 C 243.671875 150.453125 243.703125 149.839844 243.761719 149.226562 C 243.824219 148.617188 243.914062 148.011719 244.035156 147.40625 C 244.152344 146.804688 244.300781 146.210938 244.480469 145.625 C 244.660156 145.035156 244.867188 144.457031 245.101562 143.890625 C 245.335938 143.324219 245.597656 142.769531 245.890625 142.226562 C 246.179688 141.6875 246.496094 141.160156 246.835938 140.648438 C 247.175781 140.140625 247.542969 139.648438 247.933594 139.171875 C 248.324219 138.699219 248.734375 138.242188 249.167969 137.808594 C 249.605469 137.375 250.058594 136.964844 250.535156 136.574219 C 251.007812 136.183594 251.503906 135.820312 252.011719 135.476562 C 252.523438 135.136719 253.050781 134.820312 253.59375 134.53125 C 254.136719 134.242188 254.691406 133.980469 255.257812 133.746094 C 255.824219 133.511719 256.402344 133.304688 256.992188 133.125 C 257.582031 132.945312 258.175781 132.796875 258.777344 132.679688 C 259.382812 132.558594 259.988281 132.46875 260.601562 132.410156 C 261.210938 132.347656 261.824219 132.316406 262.441406 132.316406 C 263.054688 132.316406 263.667969 132.347656 264.277344 132.410156 C 264.890625 132.46875 265.5 132.558594 266.101562 132.679688 C 266.703125 132.796875 267.300781 132.945312 267.886719 133.125 C 268.476562 133.304688 269.054688 133.511719 269.621094 133.746094 C 270.1875 133.980469 270.746094 134.242188 271.285156 134.53125 C 271.828125 134.820312 272.355469 135.136719 272.867188 135.476562 C 273.378906 135.820312 273.871094 136.183594 274.34375 136.574219 C 274.820312 136.964844 275.273438 137.375 275.710938 137.808594 C 276.144531 138.242188 276.558594 138.699219 276.945312 139.171875 C 277.335938 139.648438 277.703125 140.140625 278.042969 140.648438 C 278.386719 141.160156 278.699219 141.6875 278.992188 142.226562 C 279.28125 142.769531 279.542969 143.324219 279.777344 143.890625 C 280.011719 144.457031 280.21875 145.035156 280.398438 145.625 C 280.578125 146.210938 280.726562 146.804688 280.847656 147.40625 C 280.964844 148.011719 281.054688 148.617188 281.117188 149.226562 C 281.175781 149.839844 281.207031 150.453125 281.207031 151.066406 C 281.207031 151.679688 281.175781 152.292969 281.113281 152.902344 C 281.054688 153.511719 280.964844 154.121094 280.84375 154.722656 C 280.722656 155.324219 280.574219 155.917969 280.394531 156.503906 C 280.214844 157.09375 280.007812 157.671875 279.773438 158.238281 C 279.539062 158.804688 279.277344 159.359375 278.984375 159.898438 C 278.695312 160.441406 278.378906 160.964844 278.039062 161.476562 C 277.699219 161.988281 277.332031 162.480469 276.941406 162.953125 C 276.550781 163.429688 276.140625 163.882812 275.707031 164.316406 C 275.269531 164.75 274.816406 165.164062 274.339844 165.550781 C 273.867188 165.941406 273.375 166.308594 272.863281 166.648438 C 272.351562 166.988281 271.824219 167.304688 271.285156 167.59375 C 270.742188 167.882812 270.1875 168.144531 269.617188 168.382812 C 269.050781 168.617188 268.472656 168.824219 267.886719 169 C 267.296875 169.179688 266.703125 169.328125 266.101562 169.449219 C 265.496094 169.570312 264.890625 169.660156 264.277344 169.722656 C 263.667969 169.78125 263.054688 169.8125 262.441406 169.8125 Z M 175.339844 27.035156 C 175.339844 21.550781 180.773438 17.082031 187.449219 17.082031 C 189.703125 17.074219 191.839844 17.578125 193.847656 18.601562 L 193.910156 18.640625 L 193.949219 18.640625 C 197.3125 20.414062 199.554688 23.5 199.554688 27.003906 C 199.554688 32.492188 194.121094 36.953125 187.449219 36.953125 C 180.773438 36.953125 175.339844 32.523438 175.339844 27.035156 Z M 169.671875 55.496094 C 169.722656 58.636719 171.34375 68.71875 173.574219 81.191406 L 126.125 135.761719 C 125.625 135.351562 125.105469 134.964844 124.566406 134.601562 C 124.027344 134.242188 123.472656 133.90625 122.902344 133.597656 C 122.332031 133.289062 121.746094 133.011719 121.148438 132.757812 C 120.550781 132.507812 119.941406 132.285156 119.324219 132.089844 C 118.703125 131.898438 118.078125 131.734375 117.441406 131.601562 C 116.804688 131.46875 116.167969 131.367188 115.519531 131.292969 C 114.875 131.222656 114.230469 131.183594 113.582031 131.171875 C 112.933594 131.164062 112.285156 131.1875 111.636719 131.238281 C 110.992188 131.292969 110.347656 131.375 109.710938 131.492188 C 109.070312 131.605469 108.441406 131.75 107.816406 131.925781 C 107.191406 132.101562 106.578125 132.308594 105.972656 132.542969 C 105.367188 132.777344 104.773438 133.039062 104.195312 133.332031 C 103.617188 133.621094 103.050781 133.941406 102.503906 134.285156 C 101.953125 134.632812 101.421875 135.003906 100.910156 135.402344 C 100.398438 135.796875 99.90625 136.21875 99.433594 136.664062 C 98.960938 137.105469 98.507812 137.574219 98.082031 138.058594 C 97.65625 138.546875 97.25 139.054688 96.871094 139.582031 C 96.492188 140.105469 96.140625 140.648438 95.816406 141.210938 C 95.488281 141.769531 95.191406 142.34375 94.917969 142.933594 C 94.648438 143.523438 94.40625 144.125 94.191406 144.734375 C 93.980469 145.347656 93.796875 145.96875 93.644531 146.597656 C 93.488281 147.226562 93.367188 147.863281 93.277344 148.503906 C 93.183594 149.148438 93.121094 149.792969 93.09375 150.4375 C 93.0625 151.085938 93.0625 151.734375 93.097656 152.382812 C 93.128906 153.027344 93.191406 153.671875 93.285156 154.3125 C 93.382812 154.957031 93.507812 155.589844 93.664062 156.21875 C 93.816406 156.847656 94.003906 157.46875 94.21875 158.082031 C 94.433594 158.691406 94.679688 159.292969 94.953125 159.878906 C 95.226562 160.46875 95.527344 161.039062 95.855469 161.597656 C 96.183594 162.15625 96.539062 162.699219 96.917969 163.226562 C 97.300781 163.75 97.703125 164.253906 98.132812 164.742188 C 98.5625 165.226562 99.015625 165.691406 99.488281 166.132812 L 93.621094 172.816406 C 91.335938 171.5625 89.222656 170.066406 87.28125 168.328125 C 77.761719 159.785156 72.945312 145.300781 74.65625 130.546875 C 74.882812 128.671875 75.203125 126.816406 75.617188 124.972656 C 78.664062 126.183594 81.800781 127.101562 85.023438 127.71875 C 102.488281 131.019531 121.09375 123.363281 132.691406 115.097656 C 140.449219 109.578125 145.964844 103.253906 149.09375 96.304688 C 153.695312 86.074219 152.183594 77.195312 148.828125 73.269531 C 146.695312 70.777344 142.449219 68.269531 134.367188 70.472656 C 126.097656 72.804688 118.199219 76.046875 110.671875 80.191406 C 103.144531 84.339844 96.191406 89.285156 89.800781 95.027344 C 83.570312 100.589844 78.265625 106.925781 73.890625 114.035156 C 70.871094 111.390625 68.1875 108.449219 65.835938 105.199219 L 93.8125 69.796875 L 156.65625 36.726562 C 162.332031 42.058594 166.671875 48.316406 169.671875 55.496094 Z M 117.320312 177.1875 C 109.109375 178.007812 101.421875 176.707031 94.929688 173.507812 L 100.585938 167.074219 C 101.089844 167.46875 101.609375 167.835938 102.144531 168.179688 C 102.683594 168.523438 103.238281 168.839844 103.804688 169.128906 C 104.371094 169.421875 104.953125 169.683594 105.542969 169.921875 C 106.136719 170.15625 106.738281 170.363281 107.351562 170.542969 C 107.964844 170.722656 108.585938 170.871094 109.210938 170.992188 C 109.835938 171.113281 110.46875 171.203125 111.101562 171.265625 C 111.738281 171.324219 112.375 171.355469 113.011719 171.359375 C 113.652344 171.359375 114.289062 171.328125 114.921875 171.269531 C 115.558594 171.210938 116.191406 171.121094 116.816406 171 C 117.441406 170.882812 118.0625 170.734375 118.675781 170.554688 C 119.289062 170.378906 119.890625 170.171875 120.484375 169.9375 C 121.078125 169.703125 121.660156 169.4375 122.226562 169.148438 C 122.796875 168.859375 123.347656 168.542969 123.886719 168.203125 C 124.425781 167.859375 124.945312 167.492188 125.449219 167.101562 C 125.953125 166.710938 126.4375 166.296875 126.902344 165.859375 C 127.367188 165.421875 127.808594 164.964844 128.230469 164.484375 C 128.652344 164.003906 129.046875 163.507812 129.421875 162.992188 C 129.796875 162.472656 130.144531 161.941406 130.46875 161.390625 C 130.789062 160.84375 131.085938 160.277344 131.355469 159.699219 C 131.628906 159.121094 131.867188 158.535156 132.082031 157.933594 C 132.296875 157.332031 132.480469 156.722656 132.636719 156.105469 C 132.792969 155.488281 132.921875 154.863281 133.019531 154.234375 C 133.117188 153.605469 133.183594 152.96875 133.21875 152.335938 C 133.257812 151.699219 133.265625 151.0625 133.242188 150.425781 C 133.21875 149.789062 133.164062 149.152344 133.082031 148.519531 C 132.996094 147.890625 132.886719 147.261719 132.742188 146.640625 C 132.601562 146.019531 132.429688 145.40625 132.226562 144.800781 C 132.027344 144.195312 131.796875 143.601562 131.539062 143.019531 C 131.28125 142.4375 131 141.867188 130.6875 141.308594 C 130.375 140.753906 130.039062 140.210938 129.679688 139.6875 C 129.316406 139.164062 128.929688 138.65625 128.519531 138.167969 C 128.109375 137.679688 127.675781 137.210938 127.222656 136.765625 L 172.121094 85.175781 L 131.871094 173.558594 C 127.191406 175.457031 122.34375 176.667969 117.320312 177.1875 Z M 131.679688 151.066406 C 131.679688 151.679688 131.652344 152.292969 131.589844 152.902344 C 131.53125 153.515625 131.441406 154.121094 131.320312 154.722656 C 131.199219 155.324219 131.050781 155.917969 130.871094 156.507812 C 130.695312 157.09375 130.488281 157.671875 130.253906 158.238281 C 130.015625 158.808594 129.753906 159.359375 129.464844 159.902344 C 129.175781 160.445312 128.859375 160.96875 128.519531 161.480469 C 128.175781 161.992188 127.8125 162.484375 127.421875 162.957031 C 127.03125 163.433594 126.617188 163.886719 126.183594 164.320312 C 125.75 164.753906 125.292969 165.167969 124.820312 165.558594 C 124.34375 165.945312 123.851562 166.3125 123.339844 166.652344 C 122.828125 166.996094 122.300781 167.308594 121.761719 167.597656 C 121.21875 167.886719 120.664062 168.152344 120.097656 168.386719 C 119.527344 168.621094 118.949219 168.828125 118.363281 169.003906 C 117.773438 169.183594 117.179688 169.332031 116.574219 169.453125 C 115.972656 169.570312 115.363281 169.660156 114.753906 169.722656 C 114.140625 169.78125 113.527344 169.8125 112.914062 169.8125 C 112.300781 169.8125 111.6875 169.78125 111.074219 169.722656 C 110.460938 169.660156 109.855469 169.570312 109.253906 169.453125 C 108.648438 169.332031 108.054688 169.183594 107.464844 169.003906 C 106.878906 168.828125 106.300781 168.621094 105.730469 168.386719 C 105.164062 168.152344 104.609375 167.886719 104.066406 167.597656 C 103.523438 167.308594 103 166.996094 102.488281 166.652344 C 101.976562 166.3125 101.484375 165.945312 101.007812 165.558594 C 100.535156 165.167969 100.078125 164.753906 99.644531 164.320312 C 99.210938 163.886719 98.796875 163.433594 98.40625 162.957031 C 98.015625 162.484375 97.652344 161.992188 97.308594 161.480469 C 96.96875 160.96875 96.652344 160.445312 96.363281 159.902344 C 96.074219 159.359375 95.8125 158.808594 95.574219 158.238281 C 95.339844 157.671875 95.132812 157.09375 94.957031 156.507812 C 94.777344 155.917969 94.628906 155.324219 94.507812 154.722656 C 94.386719 154.121094 94.296875 153.515625 94.238281 152.902344 C 94.175781 152.292969 94.148438 151.679688 94.148438 151.066406 C 94.148438 150.453125 94.175781 149.839844 94.238281 149.226562 C 94.296875 148.617188 94.386719 148.011719 94.507812 147.40625 C 94.628906 146.804688 94.777344 146.210938 94.957031 145.625 C 95.132812 145.035156 95.339844 144.457031 95.574219 143.890625 C 95.8125 143.324219 96.074219 142.769531 96.363281 142.226562 C 96.652344 141.6875 96.96875 141.160156 97.308594 140.648438 C 97.652344 140.140625 98.015625 139.648438 98.40625 139.171875 C 98.796875 138.699219 99.210938 138.242188 99.644531 137.808594 C 100.078125 137.375 100.535156 136.964844 101.007812 136.574219 C 101.484375 136.183594 101.976562 135.820312 102.488281 135.476562 C 103 135.136719 103.523438 134.820312 104.066406 134.53125 C 104.609375 134.242188 105.164062 133.980469 105.730469 133.746094 C 106.300781 133.511719 106.878906 133.304688 107.464844 133.125 C 108.054688 132.945312 108.648438 132.796875 109.253906 132.679688 C 109.855469 132.558594 110.460938 132.46875 111.074219 132.410156 C 111.6875 132.347656 112.300781 132.316406 112.914062 132.316406 C 113.527344 132.320312 114.140625 132.347656 114.753906 132.410156 C 115.363281 132.46875 115.972656 132.5625 116.574219 132.679688 C 117.175781 132.800781 117.773438 132.949219 118.359375 133.128906 C 118.949219 133.308594 119.527344 133.515625 120.09375 133.75 C 120.660156 133.984375 121.214844 134.246094 121.757812 134.535156 C 122.300781 134.824219 122.824219 135.140625 123.335938 135.480469 C 123.847656 135.824219 124.339844 136.1875 124.816406 136.578125 C 125.289062 136.96875 125.746094 137.378906 126.179688 137.8125 C 126.613281 138.246094 127.027344 138.703125 127.417969 139.175781 C 127.804688 139.652344 128.171875 140.144531 128.511719 140.652344 C 128.855469 141.164062 129.171875 141.691406 129.460938 142.230469 C 129.75 142.773438 130.011719 143.328125 130.25 143.894531 C 130.484375 144.460938 130.691406 145.039062 130.871094 145.625 C 131.046875 146.210938 131.199219 146.808594 131.316406 147.410156 C 131.4375 148.011719 131.527344 148.617188 131.589844 149.226562 C 131.648438 149.839844 131.679688 150.453125 131.679688 151.066406 Z M 99.277344 126.699219 C 99.175781 126.460938 98.996094 126.316406 98.742188 126.257812 C 94.378906 125.40625 90.1875 124.027344 86.171875 122.117188 C 82.160156 120.210938 78.445312 117.832031 75.03125 114.984375 C 79.359375 107.914062 84.609375 101.613281 90.785156 96.078125 C 97.082031 90.414062 103.941406 85.539062 111.363281 81.449219 C 118.78125 77.359375 126.570312 74.164062 134.726562 71.863281 C 140.5625 70.277344 145.050781 71.105469 147.707031 74.199219 C 151.460938 78.578125 151.476562 87.410156 147.753906 95.675781 C 144.710938 102.386719 139.382812 108.515625 131.839844 113.921875 C 123.574219 119.773438 111.6875 125.339844 99.277344 126.699219 Z M 95.304688 126.988281 C 91.941406 127.101562 88.605469 126.847656 85.296875 126.230469 C 80.488281 125.3125 75.910156 123.742188 71.550781 121.515625 C 72.390625 119.691406 73.308594 117.925781 74.285156 116.230469 C 77.355469 118.761719 80.660156 120.933594 84.207031 122.742188 C 87.753906 124.550781 91.453125 125.957031 95.304688 126.957031 Z M 58.097656 88.566406 L 90.617188 71.460938 L 64.960938 103.929688 C 61.742188 99.226562 59.453125 94.105469 58.097656 88.566406 Z M 67.023438 26.882812 C 68.015625 26.882812 68.996094 26.976562 69.964844 27.171875 C 70.9375 27.363281 71.878906 27.648438 72.792969 28.027344 C 73.707031 28.40625 74.578125 28.871094 75.398438 29.417969 C 76.222656 29.96875 76.984375 30.59375 77.683594 31.292969 C 78.382812 31.992188 79.007812 32.753906 79.558594 33.574219 C 80.109375 34.398438 80.574219 35.265625 80.953125 36.179688 C 81.332031 37.09375 81.617188 38.035156 81.808594 39.003906 C 82.003906 39.972656 82.101562 40.953125 82.101562 41.941406 C 82.101562 42.929688 82.003906 43.910156 81.8125 44.878906 C 81.617188 45.851562 81.332031 46.792969 80.953125 47.707031 C 80.574219 48.617188 80.109375 49.488281 79.558594 50.308594 C 79.007812 51.132812 78.382812 51.890625 77.683594 52.589844 C 76.984375 53.289062 76.222656 53.914062 75.398438 54.464844 C 74.578125 55.011719 73.707031 55.476562 72.792969 55.855469 C 71.878906 56.234375 70.9375 56.519531 69.964844 56.710938 C 68.996094 56.90625 68.015625 57.003906 67.023438 57.003906 C 66.035156 57.003906 65.054688 56.90625 64.082031 56.710938 C 63.113281 56.519531 62.167969 56.234375 61.253906 55.855469 C 60.339844 55.476562 59.472656 55.011719 58.648438 54.464844 C 57.824219 53.914062 57.0625 53.289062 56.363281 52.589844 C 55.664062 51.890625 55.039062 51.132812 54.488281 50.308594 C 53.9375 49.488281 53.476562 48.617188 53.097656 47.707031 C 52.71875 46.792969 52.429688 45.851562 52.238281 44.878906 C 52.046875 43.910156 51.949219 42.929688 51.949219 41.941406 C 51.949219 40.953125 52.046875 39.972656 52.242188 39.003906 C 52.433594 38.035156 52.722656 37.09375 53.101562 36.179688 C 53.480469 35.269531 53.945312 34.398438 54.492188 33.578125 C 55.042969 32.757812 55.667969 31.996094 56.367188 31.296875 C 57.066406 30.597656 57.828125 29.972656 58.652344 29.425781 C 59.476562 28.875 60.34375 28.410156 61.257812 28.03125 C 62.171875 27.652344 63.113281 27.367188 64.085938 27.171875 C 65.054688 26.980469 66.035156 26.882812 67.023438 26.882812 Z M 67.023438 58.460938 C 67.566406 58.460938 68.109375 58.4375 68.648438 58.382812 C 69.1875 58.332031 69.722656 58.253906 70.253906 58.148438 C 70.785156 58.042969 71.3125 57.910156 71.832031 57.753906 C 72.351562 57.597656 72.859375 57.414062 73.359375 57.207031 C 73.863281 57.003906 74.351562 56.769531 74.832031 56.515625 C 75.308594 56.261719 75.773438 55.984375 76.226562 55.683594 C 76.675781 55.382812 77.109375 55.0625 77.53125 54.71875 C 77.949219 54.375 78.351562 54.011719 78.734375 53.628906 C 79.121094 53.246094 79.484375 52.847656 79.828125 52.429688 C 80.171875 52.011719 80.496094 51.578125 80.796875 51.125 C 81.097656 50.675781 81.378906 50.210938 81.632812 49.734375 C 81.890625 49.257812 82.121094 48.769531 82.332031 48.269531 C 82.539062 47.769531 82.722656 47.257812 82.878906 46.742188 C 83.039062 46.222656 83.171875 45.699219 83.277344 45.167969 C 83.382812 44.636719 83.464844 44.101562 83.515625 43.5625 C 83.570312 43.023438 83.597656 42.484375 83.597656 41.941406 C 83.597656 41.683594 83.597656 41.433594 83.597656 41.183594 L 149.96875 37 L 53.492188 64.085938 C 49.992188 54.746094 42.457031 47.285156 35.988281 41.195312 L 50.503906 41.195312 C 50.503906 41.441406 50.503906 41.691406 50.503906 41.957031 C 50.503906 42.496094 50.53125 43.035156 50.585938 43.574219 C 50.640625 44.109375 50.71875 44.644531 50.828125 45.175781 C 50.933594 45.703125 51.066406 46.226562 51.222656 46.742188 C 51.378906 47.261719 51.5625 47.769531 51.769531 48.265625 C 51.976562 48.765625 52.210938 49.253906 52.464844 49.730469 C 52.71875 50.207031 52.996094 50.667969 53.296875 51.117188 C 53.597656 51.566406 53.921875 52 54.265625 52.417969 C 54.609375 52.835938 54.96875 53.234375 55.351562 53.617188 C 55.734375 54 56.136719 54.359375 56.554688 54.703125 C 56.972656 55.046875 57.40625 55.367188 57.855469 55.667969 C 58.304688 55.96875 58.765625 56.246094 59.242188 56.5 C 59.71875 56.757812 60.207031 56.988281 60.707031 57.195312 C 61.207031 57.402344 61.714844 57.585938 62.234375 57.742188 C 62.75 57.898438 63.273438 58.03125 63.804688 58.136719 C 64.332031 58.246094 64.867188 58.324219 65.40625 58.378906 C 65.945312 58.433594 66.484375 58.460938 67.023438 58.460938 Z M 150.296875 38.414062 L 92.976562 68.566406 L 57.769531 87.085938 C 57.199219 84.292969 56.828125 81.421875 56.484375 78.621094 C 55.9375 74.25 55.375 69.742188 53.980469 65.472656 Z M 113.28125 14.382812 C 132.9375 19.707031 146.140625 27.253906 155 35.207031 L 83.386719 39.722656 C 83.253906 38.738281 83.035156 37.777344 82.726562 36.832031 C 82.421875 35.890625 82.035156 34.980469 81.5625 34.109375 C 81.09375 33.234375 80.550781 32.410156 79.929688 31.636719 C 79.3125 30.859375 78.628906 30.144531 77.882812 29.492188 C 77.132812 28.839844 76.335938 28.257812 75.484375 27.75 C 74.628906 27.242188 73.738281 26.8125 72.8125 26.464844 C 71.882812 26.117188 70.929688 25.851562 69.953125 25.675781 C 68.976562 25.5 67.992188 25.410156 66.996094 25.410156 C 66.003906 25.410156 65.019531 25.5 64.042969 25.675781 C 63.066406 25.851562 62.113281 26.117188 61.183594 26.464844 C 60.253906 26.8125 59.363281 27.242188 58.511719 27.75 C 57.660156 28.257812 56.859375 28.839844 56.113281 29.492188 C 55.367188 30.144531 54.683594 30.859375 54.066406 31.636719 C 53.445312 32.410156 52.902344 33.234375 52.433594 34.109375 C 51.960938 34.980469 51.574219 35.890625 51.265625 36.832031 C 50.960938 37.777344 50.742188 38.738281 50.609375 39.722656 L 34.429688 39.722656 C 32.769531 38.105469 31.441406 36.25 30.449219 34.160156 C 29.453125 32.066406 28.855469 29.867188 28.652344 27.558594 C 28.472656 25.773438 28.625 24.015625 29.121094 22.289062 C 29.613281 20.5625 30.410156 18.988281 31.507812 17.570312 C 32.617188 16.324219 33.839844 15.199219 35.175781 14.199219 C 39.636719 10.636719 43.828125 9.183594 49.636719 9.183594 C 49.828125 9.179688 49.996094 9.109375 50.136719 8.976562 C 70.867188 7.222656 93.621094 9.121094 113.28125 14.382812 Z M 44.484375 88.011719 C 43.789062 84.972656 43.386719 81.726562 43.007812 78.621094 C 42.429688 74 41.84375 69.21875 40.257812 64.726562 C 36.660156 54.417969 28.042969 46.375 21.195312 39.925781 C 19.839844 38.699219 18.71875 37.289062 17.832031 35.695312 C 16.941406 34.097656 16.335938 32.402344 16.003906 30.605469 C 15.84375 29.675781 15.78125 28.738281 15.824219 27.796875 C 15.863281 26.851562 16.007812 25.925781 16.25 25.011719 C 16.492188 24.097656 16.828125 23.222656 17.261719 22.382812 C 17.695312 21.542969 18.210938 20.757812 18.8125 20.03125 C 24.492188 12.976562 37.046875 10.644531 37.175781 10.644531 L 38.058594 10.507812 C 36.71875 11.257812 35.453125 12.117188 34.253906 13.082031 C 32.835938 14.144531 31.539062 15.335938 30.367188 16.664062 C 29.144531 18.230469 28.261719 19.96875 27.710938 21.878906 C 27.160156 23.785156 26.984375 25.726562 27.183594 27.703125 C 27.40625 30.234375 28.070312 32.640625 29.175781 34.929688 C 30.28125 37.214844 31.757812 39.234375 33.601562 40.984375 C 40.382812 47.332031 48.820312 55.230469 52.328125 65.199219 C 53.851562 69.546875 54.4375 74.242188 55 78.78125 C 55.394531 81.929688 55.761719 85.175781 56.523438 88.316406 C 57.960938 94.53125 60.53125 100.242188 64.230469 105.445312 C 64.273438 105.5625 64.347656 105.660156 64.445312 105.742188 C 66.960938 109.261719 69.855469 112.4375 73.128906 115.273438 C 72.070312 117.113281 71.101562 118.96875 70.242188 120.847656 C 57.449219 113.90625 47.609375 101.78125 44.503906 88.011719 Z M 140.449219 171.136719 L 139.519531 171.972656 C 137.429688 173.832031 135.203125 175.519531 132.851562 177.03125 C 130.496094 178.546875 128.035156 179.867188 125.476562 181 C 122.914062 182.128906 120.28125 183.054688 117.574219 183.773438 C 114.867188 184.492188 112.121094 185 109.335938 185.289062 C 97.59375 186.460938 86.910156 183.320312 79.277344 176.441406 C 69.777344 167.890625 64.953125 153.40625 66.675781 138.652344 C 67.328125 133.1875 68.753906 127.933594 70.945312 122.882812 C 72.015625 123.429688 73.105469 123.9375 74.214844 124.402344 C 73.761719 126.375 73.417969 128.363281 73.179688 130.371094 C 71.398438 145.578125 76.40625 160.554688 86.246094 169.417969 C 93.097656 175.597656 102.3125 178.890625 112.527344 178.882812 C 114.167969 178.882812 115.808594 178.800781 117.441406 178.640625 C 122.675781 178.097656 127.726562 176.832031 132.59375 174.835938 C 135.625 173.601562 138.523438 172.109375 141.292969 170.367188 Z M 148.421875 163.851562 C 148.285156 163.742188 148.128906 163.6875 147.953125 163.6875 C 147.773438 163.6875 147.617188 163.742188 147.480469 163.851562 C 143.394531 167.511719 138.851562 170.457031 133.84375 172.695312 L 174.09375 84.179688 C 176.011719 94.824219 178.292969 106.789062 180.386719 117.628906 C 176.792969 135.550781 162.746094 150.527344 148.445312 163.851562 Z M 187.425781 145.835938 C 186.351562 140.46875 184.214844 129.679688 181.832031 117.332031 L 171.117188 55.300781 C 171.117188 54.765625 171.144531 54.234375 171.199219 53.703125 C 171.253906 53.171875 171.332031 52.644531 171.4375 52.121094 C 171.542969 51.597656 171.671875 51.082031 171.828125 50.574219 C 171.984375 50.0625 172.164062 49.5625 172.371094 49.070312 C 172.578125 48.578125 172.804688 48.09375 173.058594 47.625 C 173.308594 47.15625 173.585938 46.699219 173.882812 46.257812 C 174.179688 45.8125 174.5 45.386719 174.839844 44.972656 C 175.179688 44.5625 175.535156 44.167969 175.914062 43.792969 C 176.292969 43.414062 176.691406 43.058594 177.101562 42.722656 C 177.515625 42.382812 177.945312 42.066406 178.390625 41.769531 C 178.835938 41.476562 179.292969 41.203125 179.761719 40.953125 C 180.234375 40.703125 180.71875 40.472656 181.210938 40.269531 C 181.703125 40.066406 182.207031 39.890625 182.71875 39.734375 C 183.230469 39.582031 183.746094 39.453125 184.269531 39.347656 C 184.796875 39.246094 185.324219 39.167969 185.855469 39.117188 C 186.386719 39.066406 186.917969 39.042969 187.453125 39.042969 C 187.984375 39.042969 188.519531 39.070312 189.050781 39.121094 C 189.582031 39.175781 190.109375 39.253906 190.632812 39.359375 C 191.15625 39.464844 191.671875 39.59375 192.183594 39.75 C 192.695312 39.90625 193.195312 40.085938 193.691406 40.292969 C 194.183594 40.496094 194.664062 40.726562 195.136719 40.976562 C 195.605469 41.230469 196.0625 41.503906 196.507812 41.800781 C 196.949219 42.097656 197.378906 42.414062 197.789062 42.753906 C 198.203125 43.09375 198.597656 43.453125 198.972656 43.828125 C 199.351562 44.207031 199.707031 44.601562 200.046875 45.015625 C 200.386719 45.429688 200.703125 45.855469 200.996094 46.300781 C 201.292969 46.746094 201.566406 47.203125 201.820312 47.671875 C 202.070312 48.144531 202.296875 48.625 202.5 49.117188 C 202.703125 49.609375 202.882812 50.113281 203.039062 50.625 C 203.191406 51.132812 203.320312 51.652344 203.425781 52.175781 C 203.527344 52.699219 203.605469 53.226562 203.65625 53.757812 C 203.710938 54.285156 203.734375 54.820312 203.734375 55.351562 C 203.59375 57.882812 203.308594 60.394531 202.882812 62.894531 L 198.210938 89.949219 C 194.253906 111.519531 189.28125 136.636719 187.449219 145.835938 Z M 194.921875 117.601562 L 199.554688 90.777344 C 200.011719 88.292969 200.460938 85.84375 200.886719 83.472656 L 241.464844 172.703125 C 236.457031 170.472656 231.910156 167.527344 227.828125 163.867188 C 227.691406 163.757812 227.53125 163.703125 227.355469 163.703125 C 227.179688 163.703125 227.023438 163.757812 226.882812 163.867188 C 212.578125 150.527344 198.550781 135.542969 194.945312 117.601562 Z M 308.632812 138.652344 C 310.355469 153.40625 305.527344 167.890625 296.039062 176.441406 C 288.429688 183.285156 277.722656 186.460938 265.972656 185.289062 C 263.1875 185 260.441406 184.492188 257.738281 183.773438 C 255.035156 183.050781 252.402344 182.128906 249.839844 180.996094 C 247.28125 179.867188 244.824219 178.542969 242.46875 177.03125 C 240.117188 175.519531 237.894531 173.832031 235.804688 171.972656 L 234.875 171.136719 L 234.023438 170.375 C 236.792969 172.121094 239.695312 173.613281 242.730469 174.851562 C 247.59375 176.847656 252.644531 178.113281 257.875 178.652344 C 259.507812 178.816406 261.148438 178.898438 262.789062 178.898438 C 273.003906 178.898438 282.203125 175.613281 289.066406 169.433594 C 298.90625 160.566406 303.914062 145.605469 302.132812 130.386719 C 301.898438 128.378906 301.550781 126.390625 301.101562 124.417969 C 302.210938 123.949219 303.300781 123.4375 304.378906 122.898438 C 306.566406 127.941406 307.992188 133.195312 308.65625 138.652344 Z M 359.355469 30.605469 C 359.027344 32.398438 358.417969 34.09375 357.535156 35.6875 C 356.652344 37.285156 355.535156 38.695312 354.1875 39.925781 C 347.277344 46.390625 338.695312 54.417969 335.070312 64.726562 C 333.488281 69.21875 332.902344 74 332.324219 78.621094 C 331.992188 81.777344 331.5 84.90625 330.847656 88.011719 C 327.742188 101.78125 317.910156 113.90625 305.09375 120.867188 C 304.234375 118.992188 303.269531 117.136719 302.210938 115.296875 C 305.484375 112.464844 308.378906 109.285156 310.894531 105.761719 C 310.996094 105.6875 311.066406 105.585938 311.105469 105.464844 C 314.808594 100.265625 317.378906 94.554688 318.816406 88.339844 C 319.484375 85.1875 319.992188 82.007812 320.339844 78.804688 C 320.902344 74.242188 321.480469 69.570312 323.007812 65.21875 C 326.511719 55.253906 334.957031 47.355469 341.738281 41.007812 C 343.585938 39.257812 345.058594 37.238281 346.164062 34.945312 C 347.265625 32.65625 347.929688 30.242188 348.144531 27.710938 C 348.34375 25.734375 348.167969 23.792969 347.621094 21.886719 C 347.070312 19.976562 346.183594 18.238281 344.964844 16.671875 C 343.792969 15.34375 342.496094 14.148438 341.078125 13.089844 C 339.878906 12.125 338.613281 11.265625 337.269531 10.515625 L 338.152344 10.652344 C 338.277344 10.652344 350.832031 12.992188 356.507812 20.054688 C 357.113281 20.78125 357.632812 21.5625 358.066406 22.398438 C 358.5 23.234375 358.839844 24.109375 359.085938 25.019531 C 359.332031 25.929688 359.476562 26.855469 359.523438 27.800781 C 359.570312 28.742188 359.511719 29.675781 359.355469 30.605469 Z M 308.328125 53.414062 C 309.082031 53.414062 309.832031 53.339844 310.570312 53.195312 C 311.3125 53.046875 312.03125 52.828125 312.726562 52.542969 C 313.421875 52.253906 314.085938 51.902344 314.714844 51.480469 C 315.339844 51.0625 315.921875 50.589844 316.453125 50.054688 C 316.988281 49.523438 317.464844 48.941406 317.882812 48.316406 C 318.304688 47.691406 318.65625 47.027344 318.945312 46.332031 C 319.234375 45.636719 319.453125 44.917969 319.601562 44.179688 C 319.746094 43.441406 319.820312 42.695312 319.820312 41.941406 C 319.820312 41.1875 319.746094 40.441406 319.601562 39.703125 C 319.453125 38.964844 319.238281 38.25 318.949219 37.550781 C 318.660156 36.855469 318.304688 36.195312 317.886719 35.570312 C 317.46875 34.941406 316.992188 34.363281 316.460938 33.832031 C 315.925781 33.296875 315.347656 32.820312 314.71875 32.402344 C 314.089844 31.984375 313.429688 31.632812 312.734375 31.34375 C 312.035156 31.054688 311.316406 30.835938 310.578125 30.691406 C 309.839844 30.542969 309.089844 30.46875 308.335938 30.46875 C 307.582031 30.46875 306.835938 30.542969 306.09375 30.691406 C 305.355469 30.839844 304.636719 31.054688 303.941406 31.34375 C 303.242188 31.632812 302.582031 31.988281 301.953125 32.40625 C 301.328125 32.824219 300.746094 33.300781 300.214844 33.832031 C 299.679688 34.367188 299.203125 34.945312 298.785156 35.574219 C 298.367188 36.199219 298.011719 36.863281 297.726562 37.558594 C 297.4375 38.253906 297.21875 38.972656 297.074219 39.710938 C 296.925781 40.449219 296.851562 41.195312 296.851562 41.949219 C 296.855469 42.703125 296.929688 43.445312 297.078125 44.183594 C 297.226562 44.921875 297.445312 45.636719 297.734375 46.332031 C 298.023438 47.027344 298.375 47.6875 298.792969 48.3125 C 299.214844 48.9375 299.6875 49.515625 300.222656 50.046875 C 300.753906 50.578125 301.332031 51.054688 301.960938 51.472656 C 302.585938 51.890625 303.246094 52.242188 303.941406 52.53125 C 304.636719 52.816406 305.355469 53.035156 306.09375 53.183594 C 306.832031 53.332031 307.578125 53.40625 308.328125 53.40625 Z M 308.328125 31.945312 C 308.988281 31.945312 309.636719 32.007812 310.28125 32.136719 C 310.929688 32.265625 311.554688 32.453125 312.160156 32.707031 C 312.769531 32.957031 313.347656 33.265625 313.894531 33.632812 C 314.441406 33.996094 314.945312 34.410156 315.410156 34.875 C 315.875 35.339844 316.292969 35.84375 316.65625 36.390625 C 317.023438 36.9375 317.332031 37.515625 317.582031 38.121094 C 317.832031 38.726562 318.023438 39.351562 318.152344 39.996094 C 318.28125 40.640625 318.34375 41.292969 318.34375 41.949219 C 318.34375 42.605469 318.28125 43.257812 318.152344 43.902344 C 318.023438 44.546875 317.832031 45.171875 317.582031 45.777344 C 317.332031 46.386719 317.023438 46.960938 316.65625 47.507812 C 316.292969 48.054688 315.875 48.558594 315.410156 49.023438 C 314.945312 49.488281 314.441406 49.902344 313.894531 50.269531 C 313.347656 50.632812 312.769531 50.941406 312.160156 51.191406 C 311.554688 51.445312 310.929688 51.632812 310.28125 51.761719 C 309.636719 51.890625 308.988281 51.953125 308.328125 51.953125 C 307.671875 51.953125 307.019531 51.890625 306.375 51.761719 C 305.730469 51.632812 305.105469 51.445312 304.496094 51.191406 C 303.890625 50.941406 303.3125 50.632812 302.765625 50.269531 C 302.21875 49.902344 301.710938 49.488281 301.246094 49.023438 C 300.78125 48.558594 300.367188 48.054688 300.003906 47.507812 C 299.636719 46.960938 299.328125 46.386719 299.078125 45.777344 C 298.824219 45.171875 298.636719 44.546875 298.507812 43.902344 C 298.378906 43.257812 298.3125 42.605469 298.3125 41.949219 C 298.3125 41.292969 298.378906 40.640625 298.507812 39.996094 C 298.636719 39.351562 298.824219 38.726562 299.078125 38.117188 C 299.328125 37.511719 299.636719 36.933594 300 36.386719 C 300.367188 35.839844 300.78125 35.335938 301.246094 34.871094 C 301.710938 34.40625 302.21875 33.988281 302.765625 33.625 C 303.3125 33.257812 303.886719 32.949219 304.496094 32.695312 C 305.101562 32.445312 305.730469 32.253906 306.375 32.125 C 307.019531 31.996094 307.671875 31.929688 308.328125 31.929688 Z M 262.441406 135.808594 C 261.4375 135.808594 260.441406 135.902344 259.460938 136.097656 C 258.476562 136.292969 257.519531 136.582031 256.59375 136.964844 C 255.667969 137.347656 254.785156 137.820312 253.953125 138.375 C 253.117188 138.929688 252.347656 139.5625 251.636719 140.273438 C 250.925781 140.980469 250.292969 141.75 249.734375 142.582031 C 249.179688 143.417969 248.707031 144.296875 248.324219 145.222656 C 247.9375 146.148438 247.648438 147.101562 247.453125 148.082031 C 247.257812 149.066406 247.160156 150.058594 247.160156 151.058594 C 247.160156 152.0625 247.257812 153.054688 247.453125 154.039062 C 247.648438 155.019531 247.9375 155.976562 248.320312 156.902344 C 248.703125 157.828125 249.175781 158.707031 249.730469 159.539062 C 250.289062 160.371094 250.921875 161.144531 251.632812 161.851562 C 252.339844 162.5625 253.113281 163.195312 253.945312 163.75 C 254.78125 164.308594 255.660156 164.777344 256.585938 165.160156 C 257.511719 165.542969 258.46875 165.835938 259.453125 166.03125 C 260.4375 166.226562 261.429688 166.324219 262.433594 166.324219 C 263.433594 166.324219 264.429688 166.226562 265.410156 166.03125 C 266.394531 165.835938 267.351562 165.546875 268.277344 165.164062 C 269.203125 164.777344 270.082031 164.308594 270.917969 163.753906 C 271.75 163.195312 272.523438 162.5625 273.230469 161.855469 C 273.941406 161.148438 274.574219 160.375 275.132812 159.542969 C 275.6875 158.710938 276.160156 157.832031 276.542969 156.90625 C 276.925781 155.980469 277.214844 155.023438 277.414062 154.042969 C 277.609375 153.058594 277.707031 152.066406 277.707031 151.066406 C 277.703125 150.0625 277.605469 149.074219 277.410156 148.089844 C 277.214844 147.109375 276.921875 146.15625 276.539062 145.230469 C 276.15625 144.304688 275.6875 143.425781 275.128906 142.59375 C 274.570312 141.761719 273.9375 140.992188 273.230469 140.285156 C 272.523438 139.574219 271.75 138.941406 270.917969 138.386719 C 270.085938 137.828125 269.207031 137.359375 268.28125 136.976562 C 267.355469 136.589844 266.398438 136.300781 265.417969 136.105469 C 264.433594 135.90625 263.441406 135.808594 262.441406 135.808594 Z M 262.441406 164.855469 C 261.535156 164.855469 260.636719 164.765625 259.746094 164.589844 C 258.859375 164.414062 257.996094 164.152344 257.15625 163.804688 C 256.320312 163.460938 255.523438 163.035156 254.769531 162.53125 C 254.015625 162.027344 253.320312 161.457031 252.679688 160.816406 C 252.039062 160.175781 251.464844 159.480469 250.960938 158.726562 C 250.457031 157.972656 250.03125 157.179688 249.6875 156.34375 C 249.339844 155.507812 249.078125 154.644531 248.898438 153.753906 C 248.722656 152.867188 248.636719 151.972656 248.636719 151.066406 C 248.636719 150.160156 248.722656 149.261719 248.898438 148.375 C 249.078125 147.488281 249.339844 146.625 249.6875 145.789062 C 250.03125 144.953125 250.457031 144.15625 250.960938 143.402344 C 251.464844 142.652344 252.039062 141.953125 252.679688 141.3125 C 253.320312 140.671875 254.015625 140.101562 254.769531 139.597656 C 255.523438 139.097656 256.320312 138.671875 257.15625 138.324219 C 257.996094 137.976562 258.859375 137.714844 259.746094 137.539062 C 260.636719 137.363281 261.535156 137.273438 262.441406 137.273438 C 263.347656 137.273438 264.242188 137.363281 265.132812 137.539062 C 266.023438 137.714844 266.886719 137.976562 267.722656 138.324219 C 268.558594 138.671875 269.355469 139.097656 270.109375 139.597656 C 270.863281 140.101562 271.558594 140.671875 272.203125 141.3125 C 272.84375 141.953125 273.414062 142.652344 273.917969 143.402344 C 274.421875 144.15625 274.847656 144.953125 275.195312 145.789062 C 275.539062 146.625 275.800781 147.488281 275.980469 148.375 C 276.15625 149.261719 276.246094 150.160156 276.246094 151.066406 C 276.242188 151.96875 276.15625 152.867188 275.976562 153.753906 C 275.800781 154.640625 275.535156 155.503906 275.191406 156.339844 C 274.84375 157.175781 274.417969 157.972656 273.914062 158.722656 C 273.410156 159.476562 272.835938 160.171875 272.195312 160.8125 C 271.554688 161.453125 270.859375 162.023438 270.105469 162.527344 C 269.351562 163.03125 268.558594 163.457031 267.71875 163.800781 C 266.882812 164.148438 266.019531 164.410156 265.132812 164.589844 C 264.242188 164.765625 263.347656 164.855469 262.441406 164.855469 Z M 262.441406 164.855469 " fill-opacity="1" fill-rule="nonzero"/></g></svg>